<svg width="134" height="52" viewBox="0 0 134 52" fill="none" xmlns="http://www.w3.org/2000/svg">
<path d="M39.6252 10.9418C38.2397 10.8074 36.8904 11.1353 35.5357 11.3221C35.4188 11.1971 35.5223 11.1044 35.5707 11.0251C38.8605 5.64008 43.4056 1.97122 49.7032 0.710637C51.9207 0.25904 54.198 0.180013 56.4415 0.476799C57.3446 0.599094 58.1617 0.26715 59.0178 0.140823C59.8362 0.0198715 59.9975 0.140824 59.5862 0.85578C58.7799 2.25882 59.2664 3.6296 59.4935 5.02188C59.8913 7.44539 60.3075 9.86665 60.742 12.2857C60.8213 12.7345 60.7299 13.0759 60.406 13.3702C59.7878 13.9333 59.257 14.6456 58.2208 14.3029C57.5489 14.0825 57.0328 13.811 57.0113 13.0087C57.0015 12.8293 56.9352 12.6576 56.8218 12.5182C55.912 11.4726 55.0183 10.4069 53.9163 9.55083C53.2645 9.04418 52.8896 9.11407 52.4232 9.80887C51.8951 10.595 51.6048 11.4941 51.2648 12.369C50.4584 14.4319 49.6655 16.4961 48.3525 18.3117C48.0918 18.6719 47.8351 18.8318 47.3621 18.7861C45.5649 18.5996 43.7563 18.5492 41.9515 18.6356C41.9892 18.8842 42.1518 18.8775 42.3103 18.8977C44.0856 19.1154 45.8582 19.3439 47.6335 19.5575C49.0326 19.7269 49.9182 21.1944 49.3484 22.4698C48.2222 24.929 46.9615 27.3243 45.572 29.6449C45.3962 29.9578 45.1377 30.2163 44.8248 30.3921C44.083 30.8042 43.3451 31.2244 42.6114 31.6527C42.3184 31.8233 42.1262 31.7871 41.9784 31.4618C41.6372 30.7271 41.5092 29.9113 41.6088 29.1073C41.6747 28.5819 42.5402 28.1666 43.1799 28.3077C43.9741 28.4864 44.337 28.1894 44.3034 27.367C44.2872 26.9799 44.474 26.6775 44.6608 26.3765C45.2992 25.3525 45.955 24.3392 46.5947 23.3151C46.7291 23.096 46.9818 22.8595 46.8084 22.5921C46.635 22.3246 46.3179 22.4053 46.0585 22.4281C44.8638 22.5329 43.6973 22.6216 42.5643 23.1686C40.6399 24.0959 38.5326 24.4735 36.424 24.7652C33.6852 25.1428 30.9019 25.1079 28.1429 25.6656C28.2316 24.4158 28.3472 23.2116 28.1348 21.8771C27.811 22.2695 27.7895 22.6028 27.7518 22.9213C27.2882 26.9141 25.0815 29.8048 21.9368 32.0921C20.025 33.4675 17.8608 34.4526 15.568 34.9909C13.9647 35.382 12.8197 36.2649 12.0268 37.715C11.1251 39.364 10.4249 41.1164 9.49087 42.7412C8.51385 44.4426 7.01271 45.5312 5.03046 45.8403C4.01984 45.9975 3.85857 45.7919 4.15558 44.8108C4.27921 44.4077 4.43645 44.0045 4.5789 43.6094C4.90144 42.6982 5.31402 41.9295 6.50741 42.0773C6.95761 42.1338 7.20086 41.8085 7.35944 41.3798C8.27464 38.9071 9.22612 36.4491 10.1333 33.9736C10.1972 33.7619 10.3104 33.5685 10.4637 33.4091C10.6169 33.2498 10.8058 33.1291 11.0149 33.0571C12.09 32.6539 13.1651 32.2789 14.2053 31.8314C16.0034 31.064 16.5168 30.2187 16.3918 28.2889C16.2883 26.6614 16.0841 25.0353 16.4308 23.4119C17.1229 20.1583 19.253 18.0645 22.0241 16.5002C24.505 15.1025 27.2291 14.3849 29.9531 13.678C32.9393 12.911 35.9237 12.1383 38.9062 11.3597C39.1589 11.2939 39.4048 11.2065 39.6534 11.1299L39.6252 10.9418Z" fill="#03B1F0"/>
<path d="M66.9588 40.384C70.1009 40.384 72.5562 42.803 72.5333 45.8631C72.5092 48.9635 70.0229 51.3731 66.8728 51.3503C63.759 51.3274 61.344 48.9487 61.3413 45.8994C61.3386 42.7923 63.802 40.3733 66.9588 40.384ZM63.7429 45.8067C63.7348 47.7688 65.0774 49.2229 66.9104 49.2363C68.7838 49.2497 70.1519 47.8373 70.1519 45.8886C70.1519 43.9749 68.7489 42.4993 66.9266 42.4899C65.0693 42.4805 63.7509 43.8567 63.7429 45.8067Z" fill="#06B4F1"/>
<path d="M45.924 42.1499C46.6363 41.2266 47.4292 40.6273 48.5029 40.4391C50.7809 40.0359 52.7349 41.4538 52.8518 43.7626C52.958 45.8577 52.9015 47.9623 52.8854 50.0628C52.8854 50.7643 52.4043 51.1621 51.7095 51.1567C51.0147 51.1514 50.5403 50.7388 50.5121 49.9916C50.4798 49.0992 50.5027 48.2042 50.5013 47.3038C50.5013 46.5216 50.5161 45.7381 50.4906 44.9573C50.4422 43.4226 49.6318 42.5504 48.2798 42.549C46.8903 42.549 45.9307 43.4898 45.8971 44.9882C45.8608 46.6184 45.8971 48.2512 45.8796 49.8827C45.8729 50.6891 45.4523 51.1299 44.7212 51.1473C43.9901 51.1648 43.5036 50.7442 43.4996 50.0252C43.4808 47.2317 43.4808 44.4377 43.4996 41.6433C43.4937 41.348 43.6036 41.0622 43.8058 40.8469C44.008 40.6317 44.2864 40.5041 44.5814 40.4915C44.8856 40.4684 45.1873 40.5611 45.4261 40.751C45.6648 40.9409 45.823 41.214 45.8689 41.5156C45.8984 41.6876 45.8998 41.8516 45.924 42.1499Z" fill="#06B4F1"/>
<path d="M77.6549 42.1123C78.7408 40.6958 80.0874 40.1435 81.77 40.4808C83.3491 40.798 84.49 42.0411 84.5371 43.6632C84.5975 45.8067 84.5693 47.9529 84.5586 50.0978C84.5586 50.7482 84.0842 51.1837 83.4525 51.2011C83.3013 51.2091 83.15 51.1871 83.0073 51.1365C82.8646 51.0858 82.7333 51.0075 82.6209 50.906C82.5085 50.8045 82.4173 50.6818 82.3525 50.5449C82.2876 50.4081 82.2504 50.2598 82.243 50.1085C82.1973 49.2619 82.2269 48.4112 82.2188 47.5551C82.2094 46.5727 82.2471 45.5863 82.1678 44.6093C82.0643 43.3353 81.313 42.6324 80.1102 42.5544C78.9075 42.4765 77.9963 43.1605 77.6912 44.3378C77.4977 45.0877 77.6052 45.8497 77.5918 46.6063C77.573 47.6814 77.5918 48.7566 77.5851 49.8236C77.5851 50.6689 77.0878 51.2092 76.3621 51.1944C75.6673 51.1823 75.1929 50.6568 75.1902 49.8384C75.1808 47.2245 75.1902 44.6093 75.1902 41.9954C75.1902 41.0452 75.6041 40.5171 76.3419 40.4889C77.0797 40.4606 77.5232 40.9579 77.5931 41.9013C77.6077 41.9733 77.6284 42.0439 77.6549 42.1123Z" fill="#05B3F1"/>
<path d="M37.8296 49.6811C37.6159 49.7161 37.5527 49.8774 37.4573 49.9902C36.3298 51.3341 34.6728 51.5398 33.1085 51.0371C31.7135 50.5883 30.883 49.2296 30.8709 47.543C30.8574 45.6199 30.8628 43.6954 30.8709 41.7723C30.8709 40.9659 31.3049 40.5063 32.0172 40.4982C32.755 40.4902 33.2348 40.9726 33.2442 41.7857C33.259 43.217 33.2442 44.6482 33.2442 46.0862C33.2442 46.355 33.2442 46.6238 33.263 46.8925C33.3571 48.3211 34.1715 49.1248 35.5087 49.118C36.8459 49.1113 37.7933 48.2257 37.8377 46.8522C37.8887 45.1979 37.8618 43.5422 37.8592 41.8798C37.8592 41.2307 38.0876 40.7294 38.7394 40.5359C39.5458 40.2953 40.2473 40.8557 40.2513 41.7454C40.2621 44.452 40.2621 47.1586 40.2513 49.8653C40.2513 50.6488 39.8011 51.1635 39.1278 51.1944C38.4545 51.2253 37.9747 50.7603 37.8632 49.9849C37.8538 49.8908 37.843 49.7887 37.8296 49.6811Z" fill="#06B4F1"/>
<path d="M0.0929246 29.9876C-0.061822 29.3114 -0.0226947 28.6052 0.205813 27.9502C1.35351 24.3566 4.00503 22.5289 7.51934 21.7118C8.79336 21.4162 10.0875 21.3906 11.3844 21.4229C13.0307 21.4632 14.6434 21.3436 16.1499 20.5951C16.2923 20.5238 16.463 20.4324 16.5867 20.5561C16.7385 20.7079 16.5504 20.837 16.4738 20.9593C16.066 21.5467 15.7371 22.1851 15.4954 22.8582C15.3677 23.2331 15.0439 23.3353 14.7563 23.4844C11.8427 24.9923 8.73288 25.933 5.54783 26.6762C4.43642 26.9369 3.34786 27.2581 2.33724 27.8051C1.38783 28.2919 0.606098 29.0521 0.0929246 29.9876Z" fill="#05B3F1"/>
<path d="M52.4339 19.79C51.9662 19.8303 51.4811 19.8048 51.0362 19.9244C50.1802 20.1582 49.6036 19.7362 49.0204 19.2363C48.8524 19.0938 48.8752 18.9984 48.9666 18.8492C49.1413 18.563 49.3147 18.2767 49.4786 17.9851C50.2702 16.5821 50.2702 16.578 51.8856 16.7756C52.8612 16.8939 53.8356 17.0242 54.8099 17.1505C55.8555 17.2849 56.6712 18.6046 56.2479 19.5763C55.2513 21.8993 54.0637 24.1356 52.6973 26.2622C52.0912 27.1935 50.9206 27.4905 49.9692 28.0093C49.7662 28.1208 49.6574 27.8937 49.5848 27.7338C49.29 27.1021 49.1765 26.4009 49.2569 25.7085C49.3187 25.2207 50.0364 24.8377 50.6344 24.9425C51.4273 25.0769 51.6611 24.8901 51.6705 24.069C51.6705 23.7343 51.8345 23.4696 51.9985 23.2062C52.5669 22.2964 53.1529 21.3986 53.716 20.4861C54.0788 19.9002 54.0009 19.7752 53.3047 19.7631C53.1488 19.7631 52.9929 19.7698 52.8357 19.7765C52.7013 19.7765 52.5669 19.794 52.4325 19.8034L52.4339 19.79Z" fill="#06B4F1"/>
<path d="M89.4384 42.8635C90.4504 41.4846 91.723 40.5788 93.4862 40.5896C94.7322 40.5849 95.9294 41.0733 96.8164 41.9483C98.8068 43.8593 98.9667 47.375 97.1524 49.4674C96.4805 50.2496 95.6486 50.8234 94.6366 51.0384C93.6737 51.2689 92.6643 51.2114 91.7338 50.8731C90.7675 50.5036 90.0768 49.7886 89.2825 49.0696C89.2825 49.462 89.2825 49.8545 89.2825 50.2469C89.2825 50.6097 89.3161 51.0344 88.7893 51.0142C88.3337 50.9968 88.3256 50.6191 88.327 50.2657C88.327 49.1032 88.327 47.9407 88.327 46.7715C88.327 44.1321 88.327 41.4931 88.327 38.8546C88.327 38.6759 88.327 38.4971 88.3337 38.317C88.3525 38.0335 88.5071 37.8427 88.7933 37.84C89.1212 37.84 89.2556 38.0402 89.257 38.3641C89.257 39.5938 89.2718 40.8234 89.2798 42.0531C89.2798 42.2923 89.2798 42.5315 89.2798 42.7707L89.4384 42.8635ZM97.3594 45.8832C97.3432 43.3298 95.6647 41.5034 93.3492 41.5182C91.0336 41.533 89.2328 43.4642 89.2408 45.9249C89.2489 48.3856 91.0887 50.2859 93.4069 50.2832C95.7467 50.2805 97.3755 48.4702 97.3594 45.8832Z" fill="#0AB8F2"/>
<path d="M108.316 49.3223C106.619 51.3516 104.319 51.4726 102.607 50.8409C101.195 50.3182 100.499 49.2686 100.527 47.8843C100.554 46.5619 101.32 45.55 102.705 45.0621C104.371 44.4668 106.065 44.6334 107.732 45.0017C108.236 45.1119 108.339 45.0205 108.324 44.5286C108.272 42.8313 107.207 41.7239 105.454 41.5962C104.378 41.5184 103.3 41.7077 102.316 42.1472C101.999 42.2816 101.644 42.4603 101.469 42.0128C101.294 41.5653 101.667 41.4376 101.984 41.3073C103.328 40.7536 104.724 40.5171 106.179 40.7778C107.999 41.1043 109.191 42.3905 109.239 44.2343C109.295 46.2891 109.257 48.348 109.262 50.4042C109.262 50.7254 109.195 51.0156 108.822 51.0331C108.406 51.0533 108.311 50.7563 108.316 50.4028C108.316 50.0857 108.316 49.7806 108.316 49.3223ZM105.628 45.5688C104.443 45.5459 103.639 45.5688 102.891 45.9263C102.085 46.3079 101.586 46.9181 101.555 47.8454C101.524 48.7955 101.958 49.4876 102.791 49.8948C104.194 50.5789 105.575 50.4028 106.884 49.6381C108.112 48.9218 108.44 47.7688 108.351 46.4222C108.328 46.0835 108.217 45.9558 107.902 45.8846C107.017 45.7072 106.136 45.5701 105.618 45.5688H105.628Z" fill="#0AB8F2"/>
<path d="M128.569 46.0405C127.784 46.8092 127.039 47.5483 126.284 48.274C126.082 48.4675 126.053 48.6893 126.057 48.946C126.057 49.4607 126.057 49.9754 126.057 50.4888C126.057 50.8086 125.923 51.0062 125.581 50.9995C125.24 50.9927 125.109 50.7925 125.105 50.478C125.105 50.388 125.105 50.2993 125.105 50.2092C125.105 46.3845 125.105 42.5593 125.105 38.7337C125.098 38.5772 125.102 38.4204 125.119 38.2646C125.126 38.1506 125.177 38.0436 125.261 37.9664C125.345 37.8892 125.456 37.8477 125.57 37.8507C125.633 37.8453 125.695 37.8537 125.754 37.8751C125.812 37.8965 125.865 37.9306 125.909 37.9748C125.953 38.019 125.987 38.0723 126.008 38.131C126.029 38.1897 126.037 38.2523 126.031 38.3144C126.041 38.6947 126.056 39.0737 126.056 39.454C126.056 41.8031 126.056 44.1523 126.056 46.5014V47.1626C126.375 47.1263 126.478 46.9046 126.623 46.7595C128.354 44.9792 130.08 43.195 131.802 41.4067C131.927 41.2723 132.055 41.1527 132.177 41.0223C132.4 40.7818 132.67 40.6554 132.936 40.896C133.225 41.1581 133.053 41.4188 132.832 41.6446C132.141 42.3461 131.447 43.0449 130.761 43.7491C130.261 44.2611 129.427 44.7436 129.367 45.3053C129.3 45.9276 130.154 46.4678 130.606 47.0444C131.394 48.0469 132.204 49.0306 133.01 50.0184C133.233 50.2872 133.471 50.6232 133.162 50.896C132.823 51.1957 132.517 50.935 132.268 50.6272C131.04 49.0857 129.8 47.5604 128.569 46.0405Z" fill="#0AB8F2"/>
<path d="M113.658 42.4159C114.763 41.0304 116.14 40.4404 117.865 40.6205C119.825 40.8234 121.245 42.2063 121.323 44.1778C121.405 46.2541 121.353 48.3358 121.362 50.4148C121.362 50.7401 121.288 51.0035 120.89 50.9967C120.457 50.9887 120.403 50.6917 120.403 50.349C120.403 48.627 120.403 46.905 120.403 45.183C120.413 44.848 120.396 44.5128 120.352 44.1805C120.065 42.4052 118.805 41.3878 117.019 41.4685C115.193 41.5505 113.744 42.936 113.681 44.7678C113.623 46.4651 113.664 48.1651 113.661 49.8652C113.661 50.0439 113.661 50.2227 113.661 50.4027C113.661 50.7226 113.584 50.9887 113.191 50.9981C112.797 51.0075 112.691 50.7696 112.688 50.435C112.688 50.345 112.688 50.2563 112.688 50.1662V41.6459C112.688 41.5343 112.688 41.4228 112.688 41.3112C112.705 41.0156 112.804 40.7737 113.15 40.7737C113.528 40.7737 113.644 41.0277 113.653 41.3502C113.666 41.7023 113.658 42.0584 113.658 42.4159Z" fill="#0AB8F2"/>
<path d="M58.5406 45.8456C58.5406 47.1895 58.5406 48.5254 58.5406 49.8652C58.5406 50.6998 58.1562 51.1258 57.4225 51.1554C56.6578 51.1849 56.1659 50.7522 56.1592 49.9217C56.1395 47.198 56.1395 44.4735 56.1592 41.748C56.1659 40.9699 56.6779 40.4902 57.3606 40.4955C58.0769 40.4955 58.5325 41.0035 58.5379 41.826C58.5473 43.1659 58.5406 44.5057 58.5406 45.8456Z" fill="#06B4F1"/>
<path d="M13.1973 41.4699C12.9285 41.5062 12.7739 41.2791 12.9285 40.8141C13.0763 40.3706 13.247 39.9338 13.3935 39.489C13.6287 38.77 14.0117 38.2795 14.8718 38.3225C15.322 38.3453 15.6203 38.0846 15.705 37.6183C15.9603 36.2031 16.7411 35.2866 18.167 34.913C18.6105 34.7974 19.0083 34.5098 19.429 34.3015C19.5445 34.2437 19.6641 34.1308 19.7945 34.2343C19.9249 34.3378 19.8335 34.4776 19.7757 34.5905C18.9693 36.1843 18.2974 37.8696 17.2223 39.2861C16.3057 40.4821 15.0492 41.3489 13.1973 41.4699Z" fill="#06B4F1"/>
</svg>
